<?xml version="1.0" encoding="iso-8859-1"?>
<!DOCTYPE svg PUBLIC "-//W3C//DTD SVG 1.1//EN" "http://www.w3.org/Graphics/SVG/1.1/DTD/svg11.dtd">
<svg fill="#194428" version="1.1" id="Capa_1" xmlns="http://www.w3.org/2000/svg" xmlns:xlink="http://www.w3.org/1999/xlink" 
	 viewBox="0 0 28.685 28.686"
	 xml:space="preserve">
			<path d="M3.136,11.14c0,0,0.886-1.142,0.313-2.728C2.874,6.827,1.535,6.225,1.535,6.225S0.533,7.586,1.093,9.131
				C1.652,10.677,3.136,11.14,3.136,11.14z"/>
			<path d="M5.595,11.951c0,0,1.549-0.124,2.436-1.509C8.918,9.058,8.24,7.51,8.24,7.51S6.802,7.802,5.891,9.223
				C4.981,10.643,5.595,11.951,5.595,11.951z"/>
			<path d="M5.752,13.781c-0.717,1.527,0.062,2.745,0.062,2.745s1.521-0.326,2.219-1.813c0.697-1.489-0.177-2.935-0.177-2.935
				S6.469,12.254,5.752,13.781z"/>
			<path d="M9.253,15.011c0,0-1.337,0.606-1.907,2.192c-0.57,1.589,0.319,2.727,0.319,2.727s1.482-0.467,2.038-2.014
				C10.258,16.369,9.253,15.011,9.253,15.011z"/>
			<path d="M10.367,23.363c0,0,1.286-0.875,1.373-2.516c0.086-1.642-1.269-2.652-1.269-2.652s-1.106,0.965-1.195,2.649
				C9.188,22.527,10.367,23.363,10.367,23.363z"/>
			<path d="M5.111,8.084c0,0,1.371-0.458,1.773-2.095c0.403-1.637-0.376-2.881-0.376-2.881S4.92,3.684,4.527,5.281
				C4.135,6.877,5.111,8.084,5.111,8.084z"/>
			<path d="M3.135,14.621c0,0,0.509-1.353-0.506-2.698c-1.017-1.346-2.473-1.527-2.473-1.527S-0.4,11.992,0.59,13.304
				C1.58,14.617,3.135,14.621,3.135,14.621z"/>
			<path d="M4.271,18.191c0,0,0.195-1.432-1.093-2.518c-1.29-1.087-2.75-0.939-2.75-0.939s-0.188,1.68,1.068,2.739
				C2.754,18.531,4.271,18.191,4.271,18.191z"/>
			<path d="M6.001,21.143c0,0-0.245-1.424-1.803-2.068c-1.559-0.646-2.905-0.063-2.905-0.063s0.33,1.658,1.848,2.288
				C4.659,21.927,6.001,21.143,6.001,21.143z"/>
			<path d="M6.757,22.369c-1.624-0.454-2.892,0.285-2.892,0.285s0.525,1.606,2.107,2.049c1.584,0.443,2.822-0.496,2.822-0.496
				S8.381,22.822,6.757,22.369z"/>
			<path d="M5.28,9.06L4.558,8.705c-0.038,0.079-3.752,7.968,6.684,16.889l0.522-0.611C1.828,16.488,5.134,9.359,5.28,9.06z"/>	
</svg>