<svg xmlns="http://www.w3.org/2000/svg" xmlns:xlink="http://www.w3.org/1999/xlink" width="1080" zoomAndPan="magnify" viewBox="0 0 810 809.999993" height="1080" preserveAspectRatio="xMidYMid meet" version="1.0"><defs><clipPath id="e82b0e0e36"><path d="M 167.507812 634 L 640.90625 634 L 640.90625 806.195312 L 167.507812 806.195312 Z M 167.507812 634 " clip-rule="nonzero"/></clipPath><clipPath id="7816fe8f94"><path d="M 404.121094 700.027344 C 378.773438 688.480469 343.863281 668.695312 298.71875 655.355469 C 265.589844 645.570312 175.964844 624.46875 168.464844 639.046875 C 159.675781 656.109375 247.015625 724.871094 269.597656 740.445312 C 331.054688 782.773438 393.816406 806.195312 403.609375 806.195312 C 420.417969 806.195312 488.179688 776.839844 554.433594 730.902344 C 572.542969 718.351562 646.792969 653.355469 640.03125 639.550781 C 633.851562 626.941406 558.902344 641.179688 523.320312 651.34375 C 472.371094 665.902344 432.96875 686.734375 404.109375 700.039062 " clip-rule="nonzero"/></clipPath><clipPath id="a75906b95f"><path d="M 404.121094 700.027344 C 378.773438 688.480469 343.863281 668.695312 298.71875 655.355469 C 265.589844 645.570312 175.964844 624.46875 168.464844 639.046875 C 159.675781 656.109375 247.015625 724.871094 269.597656 740.445312 C 331.054688 782.773438 393.816406 806.195312 403.609375 806.195312 C 420.417969 806.195312 488.179688 776.839844 554.433594 730.902344 C 572.542969 718.351562 646.792969 653.355469 640.03125 639.550781 C 633.851562 626.941406 558.902344 641.179688 523.320312 651.34375 C 472.371094 665.902344 432.96875 686.734375 404.109375 700.039062 " clip-rule="nonzero"/></clipPath><clipPath id="820a1fe98d"><path d="M 108.332031 483.003906 L 701 483.003906 L 701 671.464844 L 108.332031 671.464844 Z M 108.332031 483.003906 " clip-rule="nonzero"/></clipPath><clipPath id="c7ab3816e1"><path d="M 404.15625 544.6875 C 364.125 527.0625 311.023438 508.257812 246.765625 497.011719 C 195.863281 488.085938 142.125 477.425781 113.015625 486.957031 C 103.722656 496.625 110.335938 516.25 115.265625 537.152344 C 121.890625 565.222656 135.339844 592.988281 149.265625 599.007812 C 206.863281 611.433594 228.402344 606.828125 276.125 623.226562 C 324.488281 639.847656 367.980469 654.742188 404.15625 671.417969 C 454.394531 651.035156 497.503906 634.957031 530.855469 622.980469 C 530.855469 622.980469 611.355469 606.164062 640.464844 604.285156 C 640.464844 604.285156 656.835938 598.640625 656.835938 598.640625 C 676.652344 591.859375 682.636719 572.460938 693.210938 541.789062 C 696.917969 531.046875 704.507812 488.710938 697.476562 486.957031 C 657.820312 477.039062 619.003906 488.015625 571.820312 495.597656 C 503.398438 506.582031 446.796875 526.15625 404.144531 544.6875 " clip-rule="nonzero"/></clipPath><clipPath id="7e7510f5a4"><path d="M 404.15625 544.6875 C 364.125 527.066406 311.023438 508.257812 246.765625 497.011719 C 195.863281 488.085938 142.125 477.425781 113.015625 486.957031 C 103.722656 496.625 110.335938 516.25 115.265625 537.152344 C 121.890625 565.222656 135.339844 592.988281 149.265625 599.007812 C 206.863281 611.433594 228.402344 606.828125 276.125 623.226562 C 324.488281 639.847656 367.980469 654.742188 404.15625 671.417969 C 454.394531 651.035156 497.503906 634.957031 530.855469 622.980469 C 530.855469 622.980469 611.355469 606.164062 640.464844 604.285156 C 640.464844 604.285156 656.835938 598.640625 656.835938 598.640625 C 676.652344 591.859375 682.636719 572.460938 693.210938 541.789062 C 696.917969 531.046875 704.507812 488.710938 697.476562 486.957031 C 657.820312 477.039062 619.003906 488.015625 571.820312 495.597656 C 503.398438 506.582031 446.796875 526.15625 404.144531 544.6875 " clip-rule="nonzero"/></clipPath><clipPath id="39cf6a1497"><path d="M 177.78125 213.308594 L 390.632812 213.308594 L 390.632812 322 L 177.78125 322 Z M 177.78125 213.308594 " clip-rule="nonzero"/></clipPath><clipPath id="cd0d6ce0fe"><path d="M 390.039062 305.007812 C 391.519531 308.507812 363.335938 317.058594 349.257812 318.882812 C 314.367188 323.398438 294.800781 321.195312 275.601562 320.160156 C 220.96875 317.230469 196.925781 318.734375 184.503906 304.011719 C 179.273438 297.808594 176.707031 292.964844 178.222656 282.4375 C 182.363281 253.703125 195.160156 217.558594 201.578125 215 C 203.980469 214.046875 206 213.96875 207.140625 213.84375 C 217 212.714844 237.195312 212.097656 297.421875 246.554688 C 354.011719 278.925781 386.632812 297 390.027344 305.023438 " clip-rule="nonzero"/></clipPath><clipPath id="456da324f8"><path d="M 390.039062 305.007812 C 391.519531 308.507812 363.335938 317.058594 349.257812 318.882812 C 314.367188 323.398438 294.800781 321.195312 275.601562 320.160156 C 220.96875 317.230469 196.925781 318.734375 184.503906 304.011719 C 179.273438 297.808594 176.707031 292.964844 178.222656 282.4375 C 182.363281 253.703125 195.160156 217.558594 201.578125 215 C 203.980469 214.046875 206 213.96875 207.140625 213.84375 C 217 212.714844 237.195312 212.097656 297.421875 246.554688 C 354.011719 278.925781 386.632812 297 390.027344 305.023438 " clip-rule="nonzero"/></clipPath><clipPath id="a55c8f2be9"><path d="M 407 208.394531 L 633.074219 208.394531 L 633.074219 345 L 407 345 Z M 407 208.394531 " clip-rule="nonzero"/></clipPath><clipPath id="f56008bd3a"><path d="M 408.296875 343.414062 C 414.371094 352.039062 567.332031 310.53125 602.34375 308.21875 C 610.121094 307.703125 623.53125 303.601562 629.824219 292.78125 C 636.664062 281.023438 631.546875 265.929688 624.933594 246.417969 C 617.792969 225.339844 617.398438 213.488281 608.5 209.898438 C 597.582031 205.511719 563.558594 213.066406 529.570312 232.113281 C 448.339844 277.636719 401.148438 333.257812 408.308594 343.414062 " clip-rule="nonzero"/></clipPath><clipPath id="eb6eba4a07"><path d="M 408.296875 343.414062 C 414.371094 352.039062 567.332031 310.53125 602.34375 308.21875 C 610.121094 307.703125 623.53125 303.601562 629.824219 292.78125 C 636.664062 281.023438 631.546875 265.929688 624.933594 246.417969 C 617.792969 225.339844 617.398438 213.488281 608.5 209.898438 C 597.582031 205.511719 563.558594 213.066406 529.570312 232.113281 C 448.339844 277.636719 401.148438 333.257812 408.308594 343.414062 " clip-rule="nonzero"/></clipPath><clipPath id="b030e042b7"><path d="M 404.484375 1.597656 L 450.804688 1.597656 L 450.804688 122.914062 L 404.484375 122.914062 Z M 404.484375 1.597656 " clip-rule="nonzero"/></clipPath><clipPath id="33afb81455"><path d="M 404.511719 1.605469 L 404.511719 122.820312 C 412.003906 117.234375 421.210938 109.265625 430.242188 98.351562 C 439.4375 87.226562 446.058594 77.113281 450.183594 68.488281 C 450.550781 67.714844 450.597656 66.835938 450.3125 66.027344 C 446.753906 56.074219 441.933594 44.277344 431.511719 30.464844 C 422.773438 18.847656 417.0625 9.136719 404.511719 1.605469 " clip-rule="nonzero"/></clipPath><clipPath id="39fbd97d21"><path d="M 404.511719 1.605469 L 404.511719 122.820312 C 412.003906 117.234375 421.210938 109.265625 430.242188 98.351562 C 439.4375 87.226562 446.058594 77.113281 450.183594 68.488281 C 450.550781 67.714844 450.597656 66.835938 450.3125 66.027344 C 446.753906 56.074219 441.933594 44.277344 431.511719 30.464844 C 422.773438 18.847656 417.0625 9.136719 404.511719 1.605469 " clip-rule="nonzero"/></clipPath><clipPath id="6433f6fdcd"><path d="M 358.160156 1.597656 L 404.621094 1.597656 L 404.621094 122.914062 L 358.160156 122.914062 Z M 358.160156 1.597656 " clip-rule="nonzero"/></clipPath><clipPath id="c9736d0802"><path d="M 404.511719 1.605469 L 404.511719 122.820312 C 397.027344 117.234375 387.816406 109.265625 378.789062 98.351562 C 369.59375 87.226562 362.96875 77.113281 358.84375 68.488281 C 358.480469 67.714844 358.433594 66.835938 358.71875 66.027344 C 362.273438 56.074219 367.097656 44.277344 377.511719 30.464844 C 386.253906 18.847656 391.964844 9.136719 404.511719 1.605469 " clip-rule="nonzero"/></clipPath><clipPath id="38bdebacfd"><path d="M 404.511719 1.605469 L 404.511719 122.820312 C 397.027344 117.234375 387.816406 109.265625 378.789062 98.351562 C 369.59375 87.226562 362.96875 77.113281 358.84375 68.488281 C 358.480469 67.714844 358.433594 66.835938 358.71875 66.027344 C 362.273438 56.074219 367.097656 44.277344 377.511719 30.464844 C 386.253906 18.847656 391.964844 9.136719 404.511719 1.605469 " clip-rule="nonzero"/></clipPath><clipPath id="ca151d07f4"><path d="M 404.621094 94 L 555.675781 94 L 555.675781 259.683594 L 404.621094 259.683594 Z M 404.621094 94 " clip-rule="nonzero"/></clipPath><clipPath id="f4e185ef5b"><path d="M 404.84375 155.378906 C 432.191406 136.421875 456.226562 122.089844 475.179688 113.222656 C 503.117188 100.152344 534.34375 91.113281 540.308594 94.964844 C 552.117188 102.597656 554.585938 132.203125 555.554688 148.417969 C 555.554688 148.417969 554.746094 173.070312 547.464844 186.625 C 544.34375 192.429688 482.339844 225.585938 404.855469 259.464844 " clip-rule="nonzero"/></clipPath><clipPath id="c37226c3b5"><path d="M 404.84375 155.378906 C 432.191406 136.421875 456.226562 122.089844 475.179688 113.222656 C 503.117188 100.152344 534.34375 91.113281 540.308594 94.964844 C 552.117188 102.597656 554.585938 132.203125 555.554688 148.417969 C 555.554688 148.417969 554.746094 173.070312 547.464844 186.625 C 544.34375 192.429688 482.339844 225.585938 404.855469 259.464844 " clip-rule="nonzero"/></clipPath><clipPath id="fb23430fed"><path d="M 254.046875 94 L 404.84375 94 L 404.84375 259.683594 L 254.046875 259.683594 Z M 254.046875 94 " clip-rule="nonzero"/></clipPath><clipPath id="41c015ca13"><path d="M 404.84375 155.378906 C 377.5 136.421875 353.464844 122.089844 334.511719 113.222656 C 306.574219 100.152344 275.339844 91.113281 269.382812 94.964844 C 257.574219 102.597656 255.105469 132.203125 254.136719 148.417969 C 254.136719 148.417969 254.941406 173.070312 262.222656 186.625 C 265.347656 192.429688 327.351562 225.585938 404.832031 259.464844 " clip-rule="nonzero"/></clipPath><clipPath id="50977f81a6"><path d="M 404.84375 155.378906 C 377.5 136.421875 353.464844 122.089844 334.511719 113.222656 C 306.574219 100.152344 275.339844 91.113281 269.382812 94.964844 C 257.574219 102.597656 255.105469 132.203125 254.136719 148.417969 C 254.136719 148.417969 254.941406 173.070312 262.222656 186.625 C 265.347656 192.429688 327.351562 225.585938 404.832031 259.464844 " clip-rule="nonzero"/></clipPath><clipPath id="28cbdf427c"><path d="M 402.375 3.214844 L 406.125 3.214844 L 406.125 120.8125 L 402.375 120.8125 Z M 402.375 3.214844 " clip-rule="nonzero"/></clipPath><clipPath id="8d340a9906"><path d="M 0.375 0.214844 L 4.125 0.214844 L 4.125 117.8125 L 0.375 117.8125 Z M 0.375 0.214844 " clip-rule="nonzero"/></clipPath><clipPath id="600f8cd704"><rect x="0" width="5" y="0" height="118"/></clipPath><clipPath id="16ff44066c"><path d="M 403.125 155.914062 L 406.875 155.914062 L 406.875 258.214844 L 403.125 258.214844 Z M 403.125 155.914062 " clip-rule="nonzero"/></clipPath><clipPath id="0dc58befa4"><path d="M 0.125 0.914062 L 3.875 0.914062 L 3.875 103.214844 L 0.125 103.214844 Z M 0.125 0.914062 " clip-rule="nonzero"/></clipPath><clipPath id="1e657f3dd7"><rect x="0" width="4" y="0" height="104"/></clipPath></defs><g clip-path="url(#e82b0e0e36)"><g clip-path="url(#7816fe8f94)"><g clip-path="url(#a75906b95f)"><rect x="-81" width="972" fill="#f2e8cf" y="-80.999999" height="971.999992" fill-opacity="1"/></g></g></g><g clip-path="url(#820a1fe98d)"><g clip-path="url(#c7ab3816e1)"><g clip-path="url(#7e7510f5a4)"><rect x="-81" width="972" fill="#f2e8cf" y="-80.999999" height="971.999992" fill-opacity="1"/></g></g></g><g clip-path="url(#39cf6a1497)"><g clip-path="url(#cd0d6ce0fe)"><g clip-path="url(#456da324f8)"><rect x="-81" width="972" fill="#f2e8cf" y="-80.999999" height="971.999992" fill-opacity="1"/></g></g></g><g clip-path="url(#a55c8f2be9)"><g clip-path="url(#f56008bd3a)"><g clip-path="url(#eb6eba4a07)"><rect x="-81" width="972" fill="#f2e8cf" y="-80.999999" height="971.999992" fill-opacity="1"/></g></g></g><g clip-path="url(#b030e042b7)"><g clip-path="url(#33afb81455)"><g clip-path="url(#39fbd97d21)"><rect x="-81" width="972" fill="#f2e8cf" y="-80.999999" height="971.999992" fill-opacity="1"/></g></g></g><g clip-path="url(#6433f6fdcd)"><g clip-path="url(#c9736d0802)"><g clip-path="url(#38bdebacfd)"><rect x="-81" width="972" fill="#f2e8cf" y="-80.999999" height="971.999992" fill-opacity="1"/></g></g></g><g clip-path="url(#ca151d07f4)"><g clip-path="url(#f4e185ef5b)"><g clip-path="url(#c37226c3b5)"><rect x="-81" width="972" fill="#f2e8cf" y="-80.999999" height="971.999992" fill-opacity="1"/></g></g></g><g clip-path="url(#fb23430fed)"><g clip-path="url(#41c015ca13)"><g clip-path="url(#50977f81a6)"><rect x="-81" width="972" fill="#f2e8cf" y="-80.999999" height="971.999992" fill-opacity="1"/></g></g></g><path fill="#f2e8cf" d="M 1.859375 424.539062 L 56.90625 398.273438 L 56.90625 411.417969 L 19.496094 428.792969 C 18.414062 429.304688 17.367188 429.707031 16.359375 430.003906 C 15.359375 430.289062 14.488281 430.515625 13.742188 430.671875 C 12.824219 430.847656 11.949219 430.972656 11.128906 431.050781 L 11.128906 432.046875 C 11.949219 432.132812 12.824219 432.257812 13.742188 432.429688 C 14.488281 432.589844 15.359375 432.832031 16.359375 433.164062 C 17.367188 433.5 18.414062 433.921875 19.496094 434.425781 L 56.90625 451.941406 L 56.90625 465.0625 L 1.859375 438.796875 Z M 1.859375 424.539062 " fill-opacity="1" fill-rule="nonzero"/><path fill="#f2e8cf" d="M 107.800781 382.898438 C 112.140625 382.898438 116.078125 383.550781 119.613281 384.847656 C 123.160156 386.128906 126.1875 387.949219 128.691406 390.289062 C 131.195312 392.617188 133.125 395.457031 134.492188 398.796875 C 135.871094 402.125 136.558594 405.785156 136.558594 409.777344 C 136.558594 413.789062 135.871094 417.46875 134.492188 420.804688 C 133.125 424.132812 131.195312 426.972656 128.691406 429.316406 C 126.1875 431.644531 123.160156 433.460938 119.613281 434.757812 C 116.078125 436.042969 112.140625 436.683594 107.800781 436.683594 L 90.785156 436.683594 L 90.785156 472.953125 L 77.023438 472.953125 L 77.023438 382.898438 Z M 90.785156 394.78125 L 90.785156 424.800781 L 107.800781 424.800781 C 112.300781 424.800781 115.882812 423.421875 118.542969 420.664062 C 121.21875 417.90625 122.5625 414.28125 122.5625 409.777344 C 122.5625 405.28125 121.21875 401.660156 118.542969 398.917969 C 115.882812 396.160156 112.300781 394.78125 107.800781 394.78125 Z M 90.785156 394.78125 " fill-opacity="1" fill-rule="nonzero"/><path fill="#f2e8cf" d="M 152.945312 472.953125 L 152.945312 460.449219 L 177.828125 460.449219 L 177.828125 416.527344 L 156.082031 416.527344 L 156.082031 404.144531 L 191.09375 404.144531 L 191.09375 460.449219 L 211.367188 460.449219 L 211.367188 472.953125 Z M 181.347656 377.265625 L 184.222656 377.265625 C 186.800781 377.265625 188.886719 377.996094 190.472656 379.449219 C 192.054688 380.914062 192.851562 382.851562 192.851562 385.273438 C 192.851562 387.6875 192.054688 389.601562 190.472656 391.027344 C 188.886719 392.441406 186.800781 393.140625 184.222656 393.140625 L 181.347656 393.140625 C 178.761719 393.140625 176.695312 392.441406 175.144531 391.027344 C 173.605469 389.601562 172.839844 387.6875 172.839844 385.273438 C 172.839844 382.851562 173.605469 380.914062 175.144531 379.449219 C 176.695312 377.996094 178.761719 377.265625 181.347656 377.265625 Z M 181.347656 377.265625 " fill-opacity="1" fill-rule="nonzero"/><path fill="#f2e8cf" d="M 226.871094 472.953125 L 226.871094 404.144531 L 239.871094 404.144531 L 239.871094 416.027344 L 240.988281 416.027344 C 241.90625 411.863281 243.972656 408.636719 247.191406 406.355469 C 250.40625 404.0625 254.472656 402.910156 259.386719 402.910156 C 262.808594 402.910156 265.910156 403.496094 268.703125 404.667969 C 271.507812 405.828125 273.882812 407.492188 275.832031 409.660156 C 277.792969 411.835938 279.316406 414.4375 280.394531 417.480469 C 281.488281 420.519531 282.035156 423.921875 282.035156 427.675781 L 282.035156 472.953125 L 268.394531 472.953125 L 268.394531 429.554688 C 268.394531 424.882812 267.164062 421.226562 264.710938 418.597656 C 262.25 415.96875 258.890625 414.652344 254.632812 414.652344 C 250.289062 414.652344 246.867188 416.027344 244.363281 418.785156 C 241.875 421.542969 240.632812 425.296875 240.632812 430.050781 L 240.632812 472.953125 Z M 226.871094 472.953125 " fill-opacity="1" fill-rule="nonzero"/><path fill="#f2e8cf" d="M 329.558594 474.210938 C 325.136719 474.210938 321.148438 473.582031 317.601562 472.335938 C 314.066406 471.085938 311.046875 469.292969 308.546875 466.964844 C 306.039062 464.621094 304.101562 461.824219 302.722656 458.574219 C 301.34375 455.3125 300.65625 451.644531 300.65625 447.570312 L 300.65625 429.554688 C 300.65625 425.464844 301.34375 421.773438 302.722656 418.476562 C 304.101562 415.183594 306.039062 412.394531 308.546875 410.109375 C 311.046875 407.816406 314.066406 406.039062 317.601562 404.789062 C 321.148438 403.539062 325.136719 402.910156 329.558594 402.910156 C 333.976562 402.910156 337.953125 403.539062 341.488281 404.789062 C 345.035156 406.039062 348.058594 407.816406 350.566406 410.109375 C 353.070312 412.394531 354.988281 415.183594 356.320312 418.476562 C 357.648438 421.773438 358.316406 425.464844 358.316406 429.554688 L 358.316406 442.171875 L 314.417969 442.171875 L 314.417969 447.070312 C 314.417969 451.984375 315.746094 455.816406 318.410156 458.574219 C 321.082031 461.320312 324.804688 462.683594 329.558594 462.683594 C 333.054688 462.683594 336.074219 462.148438 338.613281 461.070312 C 341.160156 459.992188 343.019531 458.40625 344.199219 456.316406 L 357.816406 456.316406 C 357.066406 459.074219 355.855469 461.539062 354.179688 463.707031 C 352.515625 465.863281 350.453125 467.734375 348 469.316406 C 345.539062 470.902344 342.746094 472.113281 339.609375 472.953125 C 336.484375 473.789062 333.132812 474.210938 329.558594 474.210938 Z M 344.816406 432.167969 L 344.816406 429.554688 C 344.816406 424.800781 343.472656 421.066406 340.800781 418.359375 C 338.136719 415.648438 334.386719 414.292969 329.558594 414.292969 C 324.804688 414.292969 321.082031 415.648438 318.410156 418.359375 C 315.746094 421.066406 314.417969 424.800781 314.417969 429.554688 L 314.417969 432.167969 Z M 344.816406 432.167969 " fill-opacity="1" fill-rule="nonzero"/><path fill="#f2e8cf" d="M 405.335938 381.636719 C 413.683594 381.636719 420.40625 383.9375 425.492188 388.53125 C 430.578125 393.109375 433.453125 399.363281 434.121094 407.28125 L 420.359375 407.28125 C 419.941406 403.039062 418.421875 399.75 415.792969 397.417969 C 413.164062 395.078125 409.675781 393.902344 405.335938 393.902344 C 400.679688 393.902344 396.996094 395.246094 394.285156 397.917969 C 391.574219 400.582031 390.222656 404.242188 390.222656 408.898438 L 390.222656 446.925781 C 390.222656 451.601562 391.527344 455.28125 394.140625 457.957031 C 396.769531 460.617188 400.464844 461.949219 405.21875 461.949219 C 409.640625 461.949219 413.164062 460.761719 415.792969 458.382812 C 418.421875 456.007812 419.941406 452.738281 420.359375 448.566406 L 434.121094 448.566406 C 433.785156 452.484375 432.890625 456.023438 431.433594 459.191406 C 429.972656 462.363281 427.992188 465.054688 425.492188 467.273438 C 422.984375 469.476562 420.023438 471.1875 416.601562 472.40625 C 413.179688 473.605469 409.382812 474.210938 405.21875 474.210938 C 400.890625 474.210938 396.953125 473.558594 393.40625 472.261719 C 389.851562 470.96875 386.828125 469.125 384.328125 466.75 C 381.820312 464.371094 379.882812 461.496094 378.503906 458.121094 C 377.136719 454.746094 376.460938 451.015625 376.460938 446.925781 L 376.460938 408.898438 C 376.460938 404.734375 377.136719 400.984375 378.503906 397.65625 C 379.882812 394.316406 381.820312 391.453125 384.328125 389.078125 C 386.828125 386.699219 389.851562 384.871094 393.40625 383.585938 C 396.953125 382.292969 400.929688 381.636719 405.335938 381.636719 Z M 405.335938 381.636719 " fill-opacity="1" fill-rule="nonzero"/><path fill="#f2e8cf" d="M 464.503906 447.070312 C 464.503906 451.726562 465.835938 455.398438 468.496094 458.074219 C 471.171875 460.734375 474.890625 462.066406 479.644531 462.066406 C 484.3125 462.066406 488.011719 460.734375 490.71875 458.074219 C 493.429688 455.398438 494.785156 451.726562 494.785156 447.070312 L 494.785156 429.933594 C 494.785156 425.261719 493.429688 421.589844 490.71875 418.929688 C 488.011719 416.253906 484.3125 414.914062 479.644531 414.914062 C 475.042969 414.914062 471.371094 416.265625 468.617188 418.976562 C 465.871094 421.6875 464.503906 425.339844 464.503906 429.933594 Z M 450.742188 429.933594 C 450.742188 425.84375 451.429688 422.136719 452.808594 418.808594 C 454.1875 415.46875 456.125 412.628906 458.632812 410.300781 C 461.132812 407.960938 464.175781 406.140625 467.761719 404.859375 C 471.335938 403.5625 475.300781 402.910156 479.644531 402.910156 C 484.0625 402.910156 488.039062 403.5625 491.574219 404.859375 C 495.121094 406.140625 498.148438 407.960938 500.652344 410.300781 C 503.15625 412.628906 505.097656 415.46875 506.476562 418.808594 C 507.855469 422.136719 508.546875 425.84375 508.546875 429.933594 L 508.546875 447.070312 C 508.546875 451.144531 507.855469 454.878906 506.476562 458.265625 C 505.097656 461.640625 503.15625 464.492188 500.652344 466.820312 C 498.148438 469.148438 495.121094 470.96875 491.574219 472.261719 C 488.039062 473.558594 484.0625 474.210938 479.644531 474.210938 C 475.300781 474.210938 471.335938 473.558594 467.761719 472.261719 C 464.175781 470.96875 461.132812 469.125 458.632812 466.75 C 456.125 464.371094 454.1875 461.519531 452.808594 458.191406 C 451.429688 454.855469 450.742188 451.144531 450.742188 447.070312 Z M 450.742188 429.933594 " fill-opacity="1" fill-rule="nonzero"/><path fill="#f2e8cf" d="M 525.785156 429.789062 C 525.785156 425.625 526.34375 421.894531 527.472656 418.597656 C 528.597656 415.304688 530.183594 412.488281 532.226562 410.160156 C 534.269531 407.828125 536.75 406.039062 539.664062 404.789062 C 542.59375 403.539062 545.808594 402.910156 549.316406 402.910156 C 554.308594 402.910156 558.449219 404.0625 561.746094 406.355469 C 565.039062 408.636719 567.148438 411.863281 568.066406 416.027344 L 569.183594 416.027344 C 569.101562 414.621094 569.023438 413.199219 568.949219 411.773438 C 568.769531 410.527344 568.664062 409.21875 568.613281 407.851562 C 568.578125 406.476562 568.566406 405.238281 568.566406 404.144531 L 568.566406 381.636719 L 582.210938 381.636719 L 582.210938 472.953125 L 569.183594 472.953125 L 569.183594 461.070312 L 568.066406 461.070312 C 567.148438 465.238281 565.039062 468.472656 561.746094 470.765625 C 558.449219 473.058594 554.308594 474.210938 549.316406 474.210938 C 545.808594 474.210938 542.59375 473.582031 539.664062 472.335938 C 536.75 471.085938 534.269531 469.292969 532.226562 466.964844 C 530.183594 464.621094 528.597656 461.757812 527.472656 458.382812 C 526.34375 455.007812 525.785156 451.242188 525.785156 447.070312 Z M 554.308594 462.1875 C 558.644531 462.1875 562.109375 460.820312 564.691406 458.074219 C 567.273438 455.316406 568.566406 451.652344 568.566406 447.070312 L 568.566406 430.050781 C 568.566406 425.382812 567.25 421.675781 564.621094 418.929688 C 562.007812 416.171875 558.566406 414.792969 554.308594 414.792969 C 549.726562 414.792969 546.117188 416.148438 543.492188 418.859375 C 540.859375 421.566406 539.546875 425.296875 539.546875 430.050781 L 539.546875 446.925781 C 539.546875 451.601562 540.859375 455.316406 543.492188 458.074219 C 546.117188 460.820312 549.726562 462.1875 554.308594 462.1875 Z M 554.308594 462.1875 " fill-opacity="1" fill-rule="nonzero"/><path fill="#f2e8cf" d="M 629.730469 474.210938 C 625.308594 474.210938 621.324219 473.582031 617.773438 472.335938 C 614.238281 471.085938 611.222656 469.292969 608.71875 466.964844 C 606.210938 464.621094 604.273438 461.824219 602.898438 458.574219 C 601.519531 455.3125 600.828125 451.644531 600.828125 447.570312 L 600.828125 429.554688 C 600.828125 425.464844 601.519531 421.773438 602.898438 418.476562 C 604.273438 415.183594 606.210938 412.394531 608.71875 410.109375 C 611.222656 407.816406 614.238281 406.039062 617.773438 404.789062 C 621.324219 403.539062 625.308594 402.910156 629.730469 402.910156 C 634.152344 402.910156 638.125 403.539062 641.660156 404.789062 C 645.210938 406.039062 648.234375 407.816406 650.742188 410.109375 C 653.242188 412.394531 655.160156 415.183594 656.492188 418.476562 C 657.824219 421.773438 658.488281 425.464844 658.488281 429.554688 L 658.488281 442.171875 L 614.589844 442.171875 L 614.589844 447.070312 C 614.589844 451.984375 615.921875 455.816406 618.582031 458.574219 C 621.257812 461.320312 624.976562 462.683594 629.730469 462.683594 C 633.230469 462.683594 636.25 462.148438 638.785156 461.070312 C 641.335938 459.992188 643.195312 458.40625 644.371094 456.316406 L 657.988281 456.316406 C 657.242188 459.074219 656.03125 461.539062 654.355469 463.707031 C 652.691406 465.863281 650.628906 467.734375 648.175781 469.316406 C 645.714844 470.902344 642.921875 472.113281 639.785156 472.953125 C 636.660156 473.789062 633.308594 474.210938 629.730469 474.210938 Z M 644.988281 432.167969 L 644.988281 429.554688 C 644.988281 424.800781 643.644531 421.066406 640.972656 418.359375 C 638.3125 415.648438 634.5625 414.292969 629.730469 414.292969 C 624.976562 414.292969 621.257812 415.648438 618.582031 418.359375 C 615.921875 421.066406 614.589844 424.800781 614.589844 429.554688 L 614.589844 432.167969 Z M 644.988281 432.167969 " fill-opacity="1" fill-rule="nonzero"/><path fill="#f2e8cf" d="M 675.871094 429.789062 C 675.871094 425.625 676.429688 421.894531 677.558594 418.597656 C 678.683594 415.304688 680.269531 412.488281 682.3125 410.160156 C 684.359375 407.828125 686.835938 406.039062 689.753906 404.789062 C 692.683594 403.539062 695.898438 402.910156 699.402344 402.910156 C 704.394531 402.910156 708.535156 404.0625 711.832031 406.355469 C 715.125 408.636719 717.234375 411.863281 718.15625 416.027344 L 719.273438 416.027344 C 719.1875 414.621094 719.113281 413.199219 719.035156 411.773438 C 718.855469 410.527344 718.75 409.21875 718.703125 407.851562 C 718.667969 406.476562 718.652344 405.238281 718.652344 404.144531 L 718.652344 381.636719 L 732.296875 381.636719 L 732.296875 472.953125 L 719.273438 472.953125 L 719.273438 461.070312 L 718.15625 461.070312 C 717.234375 465.238281 715.125 468.472656 711.832031 470.765625 C 708.535156 473.058594 704.394531 474.210938 699.402344 474.210938 C 695.898438 474.210938 692.683594 473.582031 689.753906 472.335938 C 686.835938 471.085938 684.359375 469.292969 682.3125 466.964844 C 680.269531 464.621094 678.683594 461.757812 677.558594 458.382812 C 676.429688 455.007812 675.871094 451.242188 675.871094 447.070312 Z M 704.394531 462.1875 C 708.730469 462.1875 712.195312 460.820312 714.78125 458.074219 C 717.359375 455.316406 718.652344 451.652344 718.652344 447.070312 L 718.652344 430.050781 C 718.652344 425.382812 717.335938 421.675781 714.707031 418.929688 C 712.09375 416.171875 708.652344 414.792969 704.394531 414.792969 C 699.8125 414.792969 696.207031 416.148438 693.578125 418.859375 C 690.945312 421.566406 689.632812 425.296875 689.632812 430.050781 L 689.632812 446.925781 C 689.632812 451.601562 690.945312 455.316406 693.578125 458.074219 C 696.207031 460.820312 699.8125 462.1875 704.394531 462.1875 Z M 704.394531 462.1875 " fill-opacity="1" fill-rule="nonzero"/><path fill="#f2e8cf" d="M 752.292969 451.941406 L 789.703125 434.6875 C 790.78125 434.183594 791.820312 433.761719 792.816406 433.425781 C 793.816406 433.09375 794.695312 432.84375 795.457031 432.667969 C 796.371094 432.511719 797.246094 432.394531 798.070312 432.308594 L 798.070312 431.289062 C 797.246094 431.210938 796.371094 431.09375 795.457031 430.929688 C 794.695312 430.757812 793.816406 430.503906 792.816406 430.171875 C 791.820312 429.839844 790.78125 429.46875 789.703125 429.054688 L 752.292969 411.417969 L 752.292969 398.394531 L 807.339844 424.539062 L 807.339844 438.796875 L 752.292969 465.0625 Z M 752.292969 451.941406 " fill-opacity="1" fill-rule="nonzero"/><g clip-path="url(#28cbdf427c)"><g transform="matrix(1, 0, 0, 1, 402, 3)"><g clip-path="url(#600f8cd704)"><g clip-path="url(#8d340a9906)"><path fill="#f2e8cf" d="M 0.375 0.214844 L 4.125 0.214844 L 4.125 117.8125 L 0.375 117.8125 Z M 0.375 0.214844 " fill-opacity="1" fill-rule="nonzero"/></g></g></g></g><g clip-path="url(#16ff44066c)"><g transform="matrix(1, 0, 0, 1, 403, 155)"><g clip-path="url(#1e657f3dd7)"><g clip-path="url(#0dc58befa4)"><path fill="#f2e8cf" d="M 0.125 0.914062 L 3.875 0.914062 L 3.875 103.21875 L 0.125 103.21875 Z M 0.125 0.914062 " fill-opacity="1" fill-rule="nonzero"/></g></g></g></g></svg>