<svg xmlns="http://www.w3.org/2000/svg" xmlns:xlink="http://www.w3.org/1999/xlink" width="710" zoomAndPan="magnify" viewBox="0 0 532.5 532.499983" height="710" preserveAspectRatio="xMidYMid meet" version="1.0"><defs><g/><clipPath id="f04a1f6fa1"><path d="M 110.121094 416.28125 L 421.335938 416.28125 L 421.335938 530 L 110.121094 530 Z M 110.121094 416.28125 " clip-rule="nonzero"/></clipPath><clipPath id="f6e57bfe34"><path d="M 265.671875 460.203125 C 249.007812 452.613281 226.058594 439.605469 196.378906 430.835938 C 174.601562 424.402344 115.679688 410.53125 110.75 420.113281 C 104.972656 431.332031 162.390625 476.535156 177.234375 486.773438 C 217.636719 514.601562 258.898438 530 265.335938 530 C 276.386719 530 320.933594 510.699219 364.488281 480.5 C 376.394531 472.25 425.207031 429.519531 420.761719 420.445312 C 416.699219 412.15625 367.425781 421.515625 344.035156 428.199219 C 310.539062 437.769531 284.636719 451.464844 265.664062 460.210938 " clip-rule="nonzero"/></clipPath><clipPath id="4ff47bb67d"><path d="M 0.121094 0.28125 L 311.335938 0.28125 L 311.335938 114 L 0.121094 114 Z M 0.121094 0.28125 " clip-rule="nonzero"/></clipPath><clipPath id="b8789ed936"><path d="M 155.671875 44.203125 C 139.007812 36.613281 116.058594 23.605469 86.378906 14.835938 C 64.601562 8.402344 5.679688 -5.46875 0.75 4.113281 C -5.027344 15.332031 52.390625 60.535156 67.234375 70.773438 C 107.636719 98.601562 148.898438 114 155.335938 114 C 166.386719 114 210.933594 94.699219 254.488281 64.5 C 266.394531 56.25 315.207031 13.519531 310.761719 4.445312 C 306.699219 -3.84375 257.425781 5.515625 234.035156 12.199219 C 200.539062 21.769531 174.636719 35.464844 155.664062 44.210938 " clip-rule="nonzero"/></clipPath><clipPath id="0be3c91b19"><rect x="0" width="312" y="0" height="114"/></clipPath><clipPath id="ef03876001"><path d="M 71.21875 317.53125 L 460.988281 317.53125 L 460.988281 441.71875 L 71.21875 441.71875 Z M 71.21875 317.53125 " clip-rule="nonzero"/></clipPath><clipPath id="ae24cc2a88"><path d="M 265.695312 358.082031 C 239.378906 346.496094 204.46875 334.132812 162.226562 326.738281 C 128.761719 320.871094 93.433594 313.863281 74.296875 320.128906 C 68.1875 326.484375 72.535156 339.386719 75.777344 353.128906 C 80.132812 371.582031 88.972656 389.835938 98.128906 393.792969 C 135.992188 401.960938 150.152344 398.933594 181.527344 409.714844 C 213.320312 420.640625 241.914062 430.433594 265.695312 441.394531 C 298.722656 427.996094 327.0625 417.425781 348.988281 409.550781 C 348.988281 409.550781 401.910156 398.496094 421.046875 397.261719 C 421.046875 397.261719 431.808594 393.550781 431.808594 393.550781 C 444.835938 389.09375 448.769531 376.339844 455.722656 356.175781 C 458.160156 349.113281 463.148438 321.28125 458.527344 320.128906 C 432.457031 313.609375 406.9375 320.824219 375.917969 325.808594 C 330.9375 333.03125 293.726562 345.898438 265.6875 358.082031 " clip-rule="nonzero"/></clipPath><clipPath id="17e5251fe3"><path d="M 0.21875 0.53125 L 389.988281 0.53125 L 389.988281 124.425781 L 0.21875 124.425781 Z M 0.21875 0.53125 " clip-rule="nonzero"/></clipPath><clipPath id="fb9995037d"><path d="M 194.695312 41.082031 C 168.378906 29.496094 133.46875 17.132812 91.226562 9.738281 C 57.761719 3.871094 22.433594 -3.136719 3.296875 3.128906 C -2.8125 9.484375 1.535156 22.386719 4.777344 36.128906 C 9.132812 54.582031 17.972656 72.835938 27.128906 76.792969 C 64.992188 84.960938 79.152344 81.933594 110.527344 92.714844 C 142.320312 103.640625 170.914062 113.433594 194.695312 124.394531 C 227.722656 110.996094 256.0625 100.425781 277.988281 92.550781 C 277.988281 92.550781 330.910156 81.496094 350.046875 80.261719 C 350.046875 80.261719 360.808594 76.550781 360.808594 76.550781 C 373.835938 72.09375 377.769531 59.339844 384.722656 39.175781 C 387.160156 32.113281 392.148438 4.28125 387.527344 3.128906 C 361.457031 -3.390625 335.9375 3.824219 304.917969 8.808594 C 259.9375 16.03125 222.726562 28.898438 194.6875 41.082031 " clip-rule="nonzero"/></clipPath><clipPath id="3741461647"><rect x="0" width="390" y="0" height="125"/></clipPath><clipPath id="ce39aa2400"><path d="M 116.875 140.230469 L 256.804688 140.230469 L 256.804688 212 L 116.875 212 Z M 116.875 140.230469 " clip-rule="nonzero"/></clipPath><clipPath id="a8dcb58cd8"><path d="M 256.414062 200.515625 C 257.386719 202.816406 238.859375 208.4375 229.605469 209.636719 C 206.667969 212.605469 193.804688 211.15625 181.183594 210.476562 C 145.265625 208.550781 129.460938 209.539062 121.292969 199.859375 C 117.855469 195.78125 116.167969 192.597656 117.164062 185.675781 C 119.886719 166.785156 128.300781 143.023438 132.519531 141.34375 C 134.097656 140.714844 135.425781 140.664062 136.175781 140.582031 C 142.65625 139.839844 155.933594 139.433594 195.527344 162.085938 C 232.730469 183.367188 254.175781 195.25 256.40625 200.523438 " clip-rule="nonzero"/></clipPath><clipPath id="8b5d0874bf"><path d="M 0.875 0.230469 L 140.804688 0.230469 L 140.804688 72 L 0.875 72 Z M 0.875 0.230469 " clip-rule="nonzero"/></clipPath><clipPath id="13b67af56b"><path d="M 140.414062 60.515625 C 141.386719 62.816406 122.859375 68.4375 113.605469 69.636719 C 90.667969 72.605469 77.804688 71.15625 65.183594 70.476562 C 29.265625 68.550781 13.460938 69.539062 5.292969 59.859375 C 1.855469 55.78125 0.167969 52.597656 1.164062 45.675781 C 3.886719 26.785156 12.300781 3.023438 16.519531 1.34375 C 18.097656 0.714844 19.425781 0.664062 20.175781 0.582031 C 26.65625 -0.160156 39.933594 -0.566406 79.527344 22.085938 C 116.730469 43.367188 138.175781 55.25 140.40625 60.523438 " clip-rule="nonzero"/></clipPath><clipPath id="21591756b4"><rect x="0" width="141" y="0" height="72"/></clipPath><clipPath id="107c180f64"><path d="M 267.28125 137 L 416.1875 137 L 416.1875 227 L 267.28125 227 Z M 267.28125 137 " clip-rule="nonzero"/></clipPath><clipPath id="0bdeaaae22"><path d="M 268.417969 225.761719 C 272.410156 231.433594 372.96875 204.144531 395.984375 202.625 C 401.097656 202.285156 409.914062 199.589844 414.050781 192.476562 C 418.546875 184.746094 415.183594 174.824219 410.835938 161.996094 C 406.140625 148.140625 405.882812 140.347656 400.03125 137.988281 C 392.855469 135.105469 370.488281 140.070312 348.144531 152.59375 C 294.742188 182.519531 263.71875 219.085938 268.425781 225.761719 " clip-rule="nonzero"/></clipPath><clipPath id="4baee18c79"><path d="M 0.28125 0 L 149.1875 0 L 149.1875 90 L 0.28125 90 Z M 0.28125 0 " clip-rule="nonzero"/></clipPath><clipPath id="4b704a42cb"><path d="M 1.417969 88.761719 C 5.410156 94.433594 105.96875 67.144531 128.984375 65.625 C 134.097656 65.285156 142.914062 62.589844 147.050781 55.476562 C 151.546875 47.746094 148.183594 37.824219 143.835938 24.996094 C 139.140625 11.140625 138.882812 3.347656 133.03125 0.988281 C 125.855469 -1.894531 103.488281 3.070312 81.144531 15.59375 C 27.742188 45.519531 -3.28125 82.085938 1.425781 88.761719 " clip-rule="nonzero"/></clipPath><clipPath id="a2c45d3f42"><rect x="0" width="150" y="0" height="90"/></clipPath><clipPath id="e20df1cdc8"><path d="M 265.785156 1.050781 L 296.464844 1.050781 L 296.464844 81 L 265.785156 81 Z M 265.785156 1.050781 " clip-rule="nonzero"/></clipPath><clipPath id="d87a309953"><path d="M 265.929688 1.054688 L 265.929688 80.742188 C 270.855469 77.070312 276.90625 71.832031 282.84375 64.65625 C 288.890625 57.34375 293.242188 50.695312 295.953125 45.023438 C 296.195312 44.515625 296.226562 43.9375 296.039062 43.40625 C 293.699219 36.863281 290.53125 29.109375 283.679688 20.027344 C 277.933594 12.390625 274.179688 6.007812 265.929688 1.054688 " clip-rule="nonzero"/></clipPath><clipPath id="44ca758a98"><path d="M 0.910156 0.0507812 L 31.363281 0.0507812 L 31.363281 79.804688 L 0.910156 79.804688 Z M 0.910156 0.0507812 " clip-rule="nonzero"/></clipPath><clipPath id="4288c11195"><path d="M 0.929688 0.0546875 L 0.929688 79.742188 C 5.855469 76.070312 11.90625 70.832031 17.84375 63.65625 C 23.890625 56.34375 28.242188 49.695312 30.953125 44.023438 C 31.195312 43.515625 31.226562 42.9375 31.039062 42.40625 C 28.699219 35.863281 25.53125 28.109375 18.679688 19.027344 C 12.933594 11.390625 9.179688 5.007812 0.929688 0.0546875 " clip-rule="nonzero"/></clipPath><clipPath id="d5e9871332"><rect x="0" width="32" y="0" height="80"/></clipPath><clipPath id="d13e8e71da"><path d="M 235.105469 1.050781 L 266 1.050781 L 266 81 L 235.105469 81 Z M 235.105469 1.050781 " clip-rule="nonzero"/></clipPath><clipPath id="7c9db6bed6"><path d="M 265.929688 1.054688 L 265.929688 80.742188 C 261.007812 77.070312 254.953125 71.832031 249.019531 64.65625 C 242.972656 57.34375 238.617188 50.695312 235.90625 45.023438 C 235.667969 44.515625 235.636719 43.9375 235.824219 43.40625 C 238.160156 36.863281 241.332031 29.109375 248.179688 20.027344 C 253.925781 12.390625 257.679688 6.007812 265.929688 1.054688 " clip-rule="nonzero"/></clipPath><clipPath id="1798bbfe0f"><path d="M 0.457031 0.0507812 L 31 0.0507812 L 31 79.804688 L 0.457031 79.804688 Z M 0.457031 0.0507812 " clip-rule="nonzero"/></clipPath><clipPath id="be56adbe06"><path d="M 30.929688 0.0546875 L 30.929688 79.742188 C 26.007812 76.070312 19.953125 70.832031 14.019531 63.65625 C 7.972656 56.34375 3.617188 49.695312 0.90625 44.023438 C 0.667969 43.515625 0.636719 42.9375 0.824219 42.40625 C 3.160156 35.863281 6.332031 28.109375 13.179688 19.027344 C 18.925781 11.390625 22.679688 5.007812 30.929688 0.0546875 " clip-rule="nonzero"/></clipPath><clipPath id="3ab72612c0"><rect x="0" width="31" y="0" height="80"/></clipPath><clipPath id="0b31a29d19"><path d="M 266 61.660156 L 365.304688 61.660156 L 365.304688 170.910156 L 266 170.910156 Z M 266 61.660156 " clip-rule="nonzero"/></clipPath><clipPath id="4f8539c1d0"><path d="M 266.148438 102.148438 C 284.125 89.683594 299.925781 80.261719 312.386719 74.433594 C 330.753906 65.839844 351.28125 59.898438 355.203125 62.429688 C 362.964844 67.449219 364.589844 86.910156 365.226562 97.570312 C 365.226562 97.570312 364.695312 113.777344 359.90625 122.6875 C 357.855469 126.503906 317.09375 148.300781 266.15625 170.574219 " clip-rule="nonzero"/></clipPath><clipPath id="e33f8d9c19"><path d="M 0 0.660156 L 99.304688 0.660156 L 99.304688 109.71875 L 0 109.71875 Z M 0 0.660156 " clip-rule="nonzero"/></clipPath><clipPath id="4e51c7ae5e"><path d="M 0.148438 41.148438 C 18.125 28.683594 33.925781 19.261719 46.386719 13.433594 C 64.753906 4.839844 85.28125 -1.101562 89.203125 1.429688 C 96.964844 6.449219 98.589844 25.910156 99.226562 36.570312 C 99.226562 36.570312 98.695312 52.777344 93.90625 61.6875 C 91.855469 65.503906 51.09375 87.300781 0.15625 109.574219 " clip-rule="nonzero"/></clipPath><clipPath id="492c50a043"><rect x="0" width="100" y="0" height="110"/></clipPath><clipPath id="5f40e7daee"><path d="M 167.011719 61.660156 L 266.53125 61.660156 L 266.53125 170.910156 L 167.011719 170.910156 Z M 167.011719 61.660156 " clip-rule="nonzero"/></clipPath><clipPath id="aaa42423ff"><path d="M 266.148438 102.148438 C 248.171875 89.683594 232.371094 80.261719 219.910156 74.433594 C 201.542969 65.839844 181.011719 59.898438 177.09375 62.429688 C 169.332031 67.449219 167.707031 86.910156 167.070312 97.570312 C 167.070312 97.570312 167.601562 113.777344 172.386719 122.6875 C 174.441406 126.503906 215.203125 148.300781 266.140625 170.574219 " clip-rule="nonzero"/></clipPath><clipPath id="6b8554b600"><path d="M 0.0117188 0.660156 L 99.148438 0.660156 L 99.148438 109.71875 L 0.0117188 109.71875 Z M 0.0117188 0.660156 " clip-rule="nonzero"/></clipPath><clipPath id="4928d261c4"><path d="M 99.148438 41.148438 C 81.171875 28.683594 65.371094 19.261719 52.910156 13.433594 C 34.542969 4.839844 14.011719 -1.101562 10.09375 1.429688 C 2.332031 6.449219 0.707031 25.910156 0.0703125 36.570312 C 0.0703125 36.570312 0.601562 52.777344 5.386719 61.6875 C 7.441406 65.503906 48.203125 87.300781 99.140625 109.574219 " clip-rule="nonzero"/></clipPath><clipPath id="208802ba81"><rect x="0" width="100" y="0" height="110"/></clipPath></defs><g clip-path="url(#f04a1f6fa1)"><g clip-path="url(#f6e57bfe34)"><g transform="matrix(1, 0, 0, 1, 110, 416)"><g clip-path="url(#0be3c91b19)"><g clip-path="url(#4ff47bb67d)"><g clip-path="url(#b8789ed936)"><rect x="-227.15" width="766.8" fill="#231f20" height="766.799976" y="-533.149996" fill-opacity="1"/></g></g></g></g></g></g><g clip-path="url(#ef03876001)"><g clip-path="url(#ae24cc2a88)"><g transform="matrix(1, 0, 0, 1, 71, 317)"><g clip-path="url(#3741461647)"><g clip-path="url(#17e5251fe3)"><g clip-path="url(#fb9995037d)"><rect x="-188.15" width="766.8" fill="#231f20" height="766.799976" y="-434.149996" fill-opacity="1"/></g></g></g></g></g></g><g clip-path="url(#ce39aa2400)"><g clip-path="url(#a8dcb58cd8)"><g transform="matrix(1, 0, 0, 1, 116, 140)"><g clip-path="url(#21591756b4)"><g clip-path="url(#8b5d0874bf)"><g clip-path="url(#13b67af56b)"><rect x="-233.15" width="766.8" fill="#231f20" height="766.799976" y="-257.149996" fill-opacity="1"/></g></g></g></g></g></g><g clip-path="url(#107c180f64)"><g clip-path="url(#0bdeaaae22)"><g transform="matrix(1, 0, 0, 1, 267, 137)"><g clip-path="url(#a2c45d3f42)"><g clip-path="url(#4baee18c79)"><g clip-path="url(#4b704a42cb)"><rect x="-384.15" width="766.8" fill="#231f20" height="766.799976" y="-254.149996" fill-opacity="1"/></g></g></g></g></g></g><g clip-path="url(#e20df1cdc8)"><g clip-path="url(#d87a309953)"><g transform="matrix(1, 0, 0, 1, 265, 1)"><g clip-path="url(#d5e9871332)"><g clip-path="url(#44ca758a98)"><g clip-path="url(#4288c11195)"><rect x="-382.15" width="766.8" fill="#231f20" height="766.799976" y="-118.149996" fill-opacity="1"/></g></g></g></g></g></g><g clip-path="url(#d13e8e71da)"><g clip-path="url(#7c9db6bed6)"><g transform="matrix(1, 0, 0, 1, 235, 1)"><g clip-path="url(#3ab72612c0)"><g clip-path="url(#1798bbfe0f)"><g clip-path="url(#be56adbe06)"><rect x="-352.15" width="766.8" fill="#231f20" height="766.799976" y="-118.149996" fill-opacity="1"/></g></g></g></g></g></g><g clip-path="url(#0b31a29d19)"><g clip-path="url(#4f8539c1d0)"><g transform="matrix(1, 0, 0, 1, 266, 61)"><g clip-path="url(#492c50a043)"><g clip-path="url(#e33f8d9c19)"><g clip-path="url(#4e51c7ae5e)"><rect x="-383.15" width="766.8" fill="#231f20" height="766.799976" y="-178.149996" fill-opacity="1"/></g></g></g></g></g></g><g clip-path="url(#5f40e7daee)"><g clip-path="url(#aaa42423ff)"><g transform="matrix(1, 0, 0, 1, 167, 61)"><g clip-path="url(#208802ba81)"><g clip-path="url(#6b8554b600)"><g clip-path="url(#4928d261c4)"><rect x="-284.15" width="766.8" fill="#231f20" height="766.799976" y="-178.149996" fill-opacity="1"/></g></g></g></g></g></g><g fill="#231f20" fill-opacity="1"><g transform="translate(-5.355213, 310.922581)"><g><path d="M 6.578125 -31.828125 L 42.765625 -49.09375 L 42.765625 -40.453125 L 18.171875 -29.03125 C 17.460938 -28.695312 16.773438 -28.429688 16.109375 -28.234375 C 15.453125 -28.046875 14.878906 -27.898438 14.390625 -27.796875 C 13.785156 -27.679688 13.210938 -27.597656 12.671875 -27.546875 L 12.671875 -26.890625 C 13.210938 -26.835938 13.785156 -26.753906 14.390625 -26.640625 C 14.878906 -26.535156 15.453125 -26.375 16.109375 -26.15625 C 16.773438 -25.9375 17.460938 -25.660156 18.171875 -25.328125 L 42.765625 -13.8125 L 42.765625 -5.1875 L 6.578125 -22.453125 Z M 6.578125 -31.828125 "/></g></g></g><g fill="#231f20" fill-opacity="1"><g transform="translate(43.978893, 310.922581)"><g><path d="M 26.890625 -59.203125 C 29.742188 -59.203125 32.332031 -58.773438 34.65625 -57.921875 C 36.988281 -57.078125 38.976562 -55.882812 40.625 -54.34375 C 42.269531 -52.8125 43.539062 -50.945312 44.4375 -48.75 C 45.34375 -46.5625 45.796875 -44.15625 45.796875 -41.53125 C 45.796875 -38.894531 45.34375 -36.476562 44.4375 -34.28125 C 43.539062 -32.09375 42.269531 -30.226562 40.625 -28.6875 C 38.976562 -27.15625 36.988281 -25.960938 34.65625 -25.109375 C 32.332031 -24.265625 29.742188 -23.84375 26.890625 -23.84375 L 15.703125 -23.84375 L 15.703125 0 L 6.65625 0 L 6.65625 -59.203125 Z M 15.703125 -51.390625 L 15.703125 -31.65625 L 26.890625 -31.65625 C 29.847656 -31.65625 32.203125 -32.5625 33.953125 -34.375 C 35.710938 -36.1875 36.59375 -38.570312 36.59375 -41.53125 C 36.59375 -44.488281 35.710938 -46.867188 33.953125 -48.671875 C 32.203125 -50.484375 29.847656 -51.390625 26.890625 -51.390625 Z M 15.703125 -51.390625 "/></g></g></g><g fill="#231f20" fill-opacity="1"><g transform="translate(93.312998, 310.922581)"><g><path d="M 7.234375 0 L 7.234375 -8.21875 L 23.59375 -8.21875 L 23.59375 -37.09375 L 9.296875 -37.09375 L 9.296875 -45.234375 L 32.3125 -45.234375 L 32.3125 -8.21875 L 45.640625 -8.21875 L 45.640625 0 Z M 25.90625 -62.90625 L 27.796875 -62.90625 C 29.492188 -62.90625 30.863281 -62.425781 31.90625 -61.46875 C 32.945312 -60.507812 33.46875 -59.234375 33.46875 -57.640625 C 33.46875 -56.054688 32.945312 -54.796875 31.90625 -53.859375 C 30.863281 -52.929688 29.492188 -52.46875 27.796875 -52.46875 L 25.90625 -52.46875 C 24.207031 -52.46875 22.847656 -52.929688 21.828125 -53.859375 C 20.816406 -54.796875 20.3125 -56.054688 20.3125 -57.640625 C 20.3125 -59.234375 20.816406 -60.507812 21.828125 -61.46875 C 22.847656 -62.425781 24.207031 -62.90625 25.90625 -62.90625 Z M 25.90625 -62.90625 "/></g></g></g><g fill="#231f20" fill-opacity="1"><g transform="translate(142.647103, 310.922581)"><g><path d="M 6.5 0 L 6.5 -45.234375 L 15.046875 -45.234375 L 15.046875 -37.421875 L 15.78125 -37.421875 C 16.382812 -40.160156 17.742188 -42.28125 19.859375 -43.78125 C 21.972656 -45.289062 24.644531 -46.046875 27.875 -46.046875 C 30.125 -46.046875 32.164062 -45.660156 34 -44.890625 C 35.84375 -44.128906 37.40625 -43.035156 38.6875 -41.609375 C 39.976562 -40.179688 40.976562 -38.46875 41.6875 -36.46875 C 42.40625 -34.46875 42.765625 -32.234375 42.765625 -29.765625 L 42.765625 0 L 33.796875 0 L 33.796875 -28.53125 C 33.796875 -31.601562 32.988281 -34.003906 31.375 -35.734375 C 29.757812 -37.460938 27.550781 -38.328125 24.75 -38.328125 C 21.894531 -38.328125 19.644531 -37.421875 18 -35.609375 C 16.363281 -33.796875 15.546875 -31.328125 15.546875 -28.203125 L 15.546875 0 Z M 6.5 0 "/></g></g></g><g fill="#231f20" fill-opacity="1"><g transform="translate(191.981208, 310.922581)"><g><path d="M 24.671875 0.828125 C 21.765625 0.828125 19.144531 0.414062 16.8125 -0.40625 C 14.488281 -1.226562 12.503906 -2.40625 10.859375 -3.9375 C 9.210938 -5.476562 7.9375 -7.316406 7.03125 -9.453125 C 6.125 -11.597656 5.671875 -14.007812 5.671875 -16.6875 L 5.671875 -28.53125 C 5.671875 -31.21875 6.125 -33.644531 7.03125 -35.8125 C 7.9375 -37.976562 9.210938 -39.8125 10.859375 -41.3125 C 12.503906 -42.820312 14.488281 -43.988281 16.8125 -44.8125 C 19.144531 -45.632812 21.765625 -46.046875 24.671875 -46.046875 C 27.578125 -46.046875 30.191406 -45.632812 32.515625 -44.8125 C 34.847656 -43.988281 36.835938 -42.820312 38.484375 -41.3125 C 40.128906 -39.8125 41.390625 -37.976562 42.265625 -35.8125 C 43.140625 -33.644531 43.578125 -31.21875 43.578125 -28.53125 L 43.578125 -20.234375 L 14.71875 -20.234375 L 14.71875 -17.015625 C 14.71875 -13.785156 15.59375 -11.265625 17.34375 -9.453125 C 19.101562 -7.648438 21.546875 -6.75 24.671875 -6.75 C 26.972656 -6.75 28.957031 -7.101562 30.625 -7.8125 C 32.300781 -8.519531 33.523438 -9.5625 34.296875 -10.9375 L 43.25 -10.9375 C 42.757812 -9.125 41.960938 -7.503906 40.859375 -6.078125 C 39.765625 -4.660156 38.410156 -3.429688 36.796875 -2.390625 C 35.179688 -1.347656 33.34375 -0.550781 31.28125 0 C 29.226562 0.550781 27.023438 0.828125 24.671875 0.828125 Z M 34.703125 -26.8125 L 34.703125 -28.53125 C 34.703125 -31.65625 33.820312 -34.109375 32.0625 -35.890625 C 30.3125 -37.671875 27.847656 -38.5625 24.671875 -38.5625 C 21.546875 -38.5625 19.101562 -37.671875 17.34375 -35.890625 C 15.59375 -34.109375 14.71875 -31.65625 14.71875 -28.53125 L 14.71875 -26.8125 Z M 34.703125 -26.8125 "/></g></g></g><g fill="#231f20" fill-opacity="1"><g transform="translate(241.315314, 310.922581)"><g><path d="M 25.15625 -60.03125 C 30.644531 -60.03125 35.0625 -58.519531 38.40625 -55.5 C 41.75 -52.488281 43.640625 -48.378906 44.078125 -43.171875 L 35.03125 -43.171875 C 34.757812 -45.960938 33.757812 -48.125 32.03125 -49.65625 C 30.300781 -51.195312 28.007812 -51.96875 25.15625 -51.96875 C 22.09375 -51.96875 19.671875 -51.085938 17.890625 -49.328125 C 16.109375 -47.578125 15.21875 -45.171875 15.21875 -42.109375 L 15.21875 -17.109375 C 15.21875 -14.035156 16.078125 -11.617188 17.796875 -9.859375 C 19.523438 -8.109375 21.953125 -7.234375 25.078125 -7.234375 C 27.984375 -7.234375 30.300781 -8.015625 32.03125 -9.578125 C 33.757812 -11.140625 34.757812 -13.289062 35.03125 -16.03125 L 44.078125 -16.03125 C 43.859375 -13.457031 43.269531 -11.128906 42.3125 -9.046875 C 41.351562 -6.960938 40.050781 -5.191406 38.40625 -3.734375 C 36.757812 -2.285156 34.8125 -1.160156 32.5625 -0.359375 C 30.3125 0.429688 27.816406 0.828125 25.078125 0.828125 C 22.234375 0.828125 19.644531 0.398438 17.3125 -0.453125 C 14.976562 -1.304688 12.988281 -2.515625 11.34375 -4.078125 C 9.695312 -5.640625 8.421875 -7.53125 7.515625 -9.75 C 6.617188 -11.96875 6.171875 -14.421875 6.171875 -17.109375 L 6.171875 -42.109375 C 6.171875 -44.847656 6.617188 -47.3125 7.515625 -49.5 C 8.421875 -51.695312 9.695312 -53.578125 11.34375 -55.140625 C 12.988281 -56.703125 14.976562 -57.90625 17.3125 -58.75 C 19.644531 -59.601562 22.257812 -60.03125 25.15625 -60.03125 Z M 25.15625 -60.03125 "/></g></g></g><g fill="#231f20" fill-opacity="1"><g transform="translate(290.649419, 310.922581)"><g><path d="M 14.71875 -17.015625 C 14.71875 -13.953125 15.59375 -11.539062 17.34375 -9.78125 C 19.101562 -8.03125 21.546875 -7.15625 24.671875 -7.15625 C 27.742188 -7.15625 30.171875 -8.03125 31.953125 -9.78125 C 33.734375 -11.539062 34.625 -13.953125 34.625 -17.015625 L 34.625 -28.28125 C 34.625 -31.351562 33.734375 -33.765625 31.953125 -35.515625 C 30.171875 -37.273438 27.742188 -38.15625 24.671875 -38.15625 C 21.648438 -38.15625 19.234375 -37.265625 17.421875 -35.484375 C 15.617188 -33.703125 14.71875 -31.300781 14.71875 -28.28125 Z M 5.671875 -28.28125 C 5.671875 -30.96875 6.125 -33.40625 7.03125 -35.59375 C 7.9375 -37.789062 9.210938 -39.65625 10.859375 -41.1875 C 12.503906 -42.726562 14.503906 -43.921875 16.859375 -44.765625 C 19.210938 -45.617188 21.816406 -46.046875 24.671875 -46.046875 C 27.578125 -46.046875 30.191406 -45.617188 32.515625 -44.765625 C 34.847656 -43.921875 36.835938 -42.726562 38.484375 -41.1875 C 40.128906 -39.65625 41.40625 -37.789062 42.3125 -35.59375 C 43.21875 -33.40625 43.671875 -30.96875 43.671875 -28.28125 L 43.671875 -17.015625 C 43.671875 -14.335938 43.21875 -11.882812 42.3125 -9.65625 C 41.40625 -7.4375 40.128906 -5.5625 38.484375 -4.03125 C 36.835938 -2.5 34.847656 -1.304688 32.515625 -0.453125 C 30.191406 0.398438 27.578125 0.828125 24.671875 0.828125 C 21.816406 0.828125 19.210938 0.398438 16.859375 -0.453125 C 14.503906 -1.304688 12.503906 -2.515625 10.859375 -4.078125 C 9.210938 -5.640625 7.9375 -7.515625 7.03125 -9.703125 C 6.125 -11.898438 5.671875 -14.335938 5.671875 -17.015625 Z M 5.671875 -28.28125 "/></g></g></g><g fill="#231f20" fill-opacity="1"><g transform="translate(339.983524, 310.922581)"><g><path d="M 5.671875 -28.375 C 5.671875 -31.113281 6.039062 -33.566406 6.78125 -35.734375 C 7.519531 -37.898438 8.5625 -39.75 9.90625 -41.28125 C 11.25 -42.8125 12.878906 -43.988281 14.796875 -44.8125 C 16.722656 -45.632812 18.835938 -46.046875 21.140625 -46.046875 C 24.421875 -46.046875 27.144531 -45.289062 29.3125 -43.78125 C 31.476562 -42.28125 32.863281 -40.160156 33.46875 -37.421875 L 34.203125 -37.421875 C 34.148438 -38.347656 34.097656 -39.28125 34.046875 -40.21875 C 33.929688 -41.039062 33.859375 -41.898438 33.828125 -42.796875 C 33.804688 -43.703125 33.796875 -44.515625 33.796875 -45.234375 L 33.796875 -60.03125 L 42.765625 -60.03125 L 42.765625 0 L 34.203125 0 L 34.203125 -7.8125 L 33.46875 -7.8125 C 32.863281 -5.070312 31.476562 -2.945312 29.3125 -1.4375 C 27.144531 0.0703125 24.421875 0.828125 21.140625 0.828125 C 18.835938 0.828125 16.722656 0.414062 14.796875 -0.40625 C 12.878906 -1.226562 11.25 -2.40625 9.90625 -3.9375 C 8.5625 -5.476562 7.519531 -7.359375 6.78125 -9.578125 C 6.039062 -11.796875 5.671875 -14.273438 5.671875 -17.015625 Z M 24.421875 -7.078125 C 27.273438 -7.078125 29.550781 -7.976562 31.25 -9.78125 C 32.945312 -11.59375 33.796875 -14.003906 33.796875 -17.015625 L 33.796875 -28.203125 C 33.796875 -31.273438 32.929688 -33.710938 31.203125 -35.515625 C 29.484375 -37.328125 27.222656 -38.234375 24.421875 -38.234375 C 21.410156 -38.234375 19.039062 -37.34375 17.3125 -35.5625 C 15.582031 -33.78125 14.71875 -31.328125 14.71875 -28.203125 L 14.71875 -17.109375 C 14.71875 -14.035156 15.582031 -11.59375 17.3125 -9.78125 C 19.039062 -7.976562 21.410156 -7.078125 24.421875 -7.078125 Z M 24.421875 -7.078125 "/></g></g></g><g fill="#231f20" fill-opacity="1"><g transform="translate(389.317629, 310.922581)"><g><path d="M 24.671875 0.828125 C 21.765625 0.828125 19.144531 0.414062 16.8125 -0.40625 C 14.488281 -1.226562 12.503906 -2.40625 10.859375 -3.9375 C 9.210938 -5.476562 7.9375 -7.316406 7.03125 -9.453125 C 6.125 -11.597656 5.671875 -14.007812 5.671875 -16.6875 L 5.671875 -28.53125 C 5.671875 -31.21875 6.125 -33.644531 7.03125 -35.8125 C 7.9375 -37.976562 9.210938 -39.8125 10.859375 -41.3125 C 12.503906 -42.820312 14.488281 -43.988281 16.8125 -44.8125 C 19.144531 -45.632812 21.765625 -46.046875 24.671875 -46.046875 C 27.578125 -46.046875 30.191406 -45.632812 32.515625 -44.8125 C 34.847656 -43.988281 36.835938 -42.820312 38.484375 -41.3125 C 40.128906 -39.8125 41.390625 -37.976562 42.265625 -35.8125 C 43.140625 -33.644531 43.578125 -31.21875 43.578125 -28.53125 L 43.578125 -20.234375 L 14.71875 -20.234375 L 14.71875 -17.015625 C 14.71875 -13.785156 15.59375 -11.265625 17.34375 -9.453125 C 19.101562 -7.648438 21.546875 -6.75 24.671875 -6.75 C 26.972656 -6.75 28.957031 -7.101562 30.625 -7.8125 C 32.300781 -8.519531 33.523438 -9.5625 34.296875 -10.9375 L 43.25 -10.9375 C 42.757812 -9.125 41.960938 -7.503906 40.859375 -6.078125 C 39.765625 -4.660156 38.410156 -3.429688 36.796875 -2.390625 C 35.179688 -1.347656 33.34375 -0.550781 31.28125 0 C 29.226562 0.550781 27.023438 0.828125 24.671875 0.828125 Z M 34.703125 -26.8125 L 34.703125 -28.53125 C 34.703125 -31.65625 33.820312 -34.109375 32.0625 -35.890625 C 30.3125 -37.671875 27.847656 -38.5625 24.671875 -38.5625 C 21.546875 -38.5625 19.101562 -37.671875 17.34375 -35.890625 C 15.59375 -34.109375 14.71875 -31.65625 14.71875 -28.53125 L 14.71875 -26.8125 Z M 34.703125 -26.8125 "/></g></g></g><g fill="#231f20" fill-opacity="1"><g transform="translate(438.651735, 310.922581)"><g><path d="M 5.671875 -28.375 C 5.671875 -31.113281 6.039062 -33.566406 6.78125 -35.734375 C 7.519531 -37.898438 8.5625 -39.75 9.90625 -41.28125 C 11.25 -42.8125 12.878906 -43.988281 14.796875 -44.8125 C 16.722656 -45.632812 18.835938 -46.046875 21.140625 -46.046875 C 24.421875 -46.046875 27.144531 -45.289062 29.3125 -43.78125 C 31.476562 -42.28125 32.863281 -40.160156 33.46875 -37.421875 L 34.203125 -37.421875 C 34.148438 -38.347656 34.097656 -39.28125 34.046875 -40.21875 C 33.929688 -41.039062 33.859375 -41.898438 33.828125 -42.796875 C 33.804688 -43.703125 33.796875 -44.515625 33.796875 -45.234375 L 33.796875 -60.03125 L 42.765625 -60.03125 L 42.765625 0 L 34.203125 0 L 34.203125 -7.8125 L 33.46875 -7.8125 C 32.863281 -5.070312 31.476562 -2.945312 29.3125 -1.4375 C 27.144531 0.0703125 24.421875 0.828125 21.140625 0.828125 C 18.835938 0.828125 16.722656 0.414062 14.796875 -0.40625 C 12.878906 -1.226562 11.25 -2.40625 9.90625 -3.9375 C 8.5625 -5.476562 7.519531 -7.359375 6.78125 -9.578125 C 6.039062 -11.796875 5.671875 -14.273438 5.671875 -17.015625 Z M 24.421875 -7.078125 C 27.273438 -7.078125 29.550781 -7.976562 31.25 -9.78125 C 32.945312 -11.59375 33.796875 -14.003906 33.796875 -17.015625 L 33.796875 -28.203125 C 33.796875 -31.273438 32.929688 -33.710938 31.203125 -35.515625 C 29.484375 -37.328125 27.222656 -38.234375 24.421875 -38.234375 C 21.410156 -38.234375 19.039062 -37.34375 17.3125 -35.5625 C 15.582031 -33.78125 14.71875 -31.328125 14.71875 -28.203125 L 14.71875 -17.109375 C 14.71875 -14.035156 15.582031 -11.59375 17.3125 -9.78125 C 19.039062 -7.976562 21.410156 -7.078125 24.421875 -7.078125 Z M 24.421875 -7.078125 "/></g></g></g><g fill="#231f20" fill-opacity="1"><g transform="translate(487.98584, 310.922581)"><g><path d="M 6.578125 -13.8125 L 31.171875 -25.15625 C 31.878906 -25.488281 32.5625 -25.765625 33.21875 -25.984375 C 33.875 -26.203125 34.453125 -26.367188 34.953125 -26.484375 C 35.554688 -26.585938 36.128906 -26.664062 36.671875 -26.71875 L 36.671875 -27.390625 C 36.128906 -27.441406 35.554688 -27.519531 34.953125 -27.625 C 34.453125 -27.738281 33.875 -27.90625 33.21875 -28.125 C 32.5625 -28.34375 31.878906 -28.585938 31.171875 -28.859375 L 6.578125 -40.453125 L 6.578125 -49.015625 L 42.765625 -31.828125 L 42.765625 -22.453125 L 6.578125 -5.1875 Z M 6.578125 -13.8125 "/></g></g></g></svg>