<?xml version="1.0" encoding="UTF-8"?>
<svg id="Layer_2" data-name="Layer 2" xmlns="http://www.w3.org/2000/svg" viewBox="0 0 558.08 248.64">
  <g id="Layer_1-2" data-name="Layer 1">
    <path d="m37.08,63L53.68,0h10.61l16.57,63h-7.98l-4.21-17h-19.37l-4.21,17h-8.01Zm13.79-24h16.13l-4.91-19.73c-.93-3.74-1.67-6.87-2.19-9.38-.53-2.51-.85-4.15-.96-4.91-.12.76-.44,2.4-.96,4.91-.53,2.51-1.26,5.61-2.19,9.29l-4.91,19.81Zm-7.71,33h-8.03L0,189h8.03l35.14-117Zm38,0h-8.03l-35.14,117h8.03l35.14-117Zm39.86,8c-.31,6.96-.55,26.19-.7,32.99-.16,6.8-.24,12.82-.24,18.07v57.94h14v-117h-21.18l-15.45,57.74-12.41-50.67-4.81,18.71,10.96,45.22h11.9m104.58-38.27c-5.61-5.11-13.66-7.66-24.15-7.66-9.65,0-17.38,2.26-23.21,6.79-5.81,4.52-8.99,10.24-9.52,17.15h13.79c.22-3.7,2.02-6.6,5.43-8.67,3.4-2.07,7.86-3.11,13.4-3.11,12.44,0,18.67,5.83,18.67,17.51v7.27h-26.54c-5.49,0-10.35,1.11-14.59,3.33-4.24,2.23-7.55,5.31-9.93,9.23-2.38,3.94-3.56,8.53-3.56,13.81,0,7.97,2.58,16.4,7.75,21.32s12.15,6.85,20.95,6.85c7.34,0,13.24-1,17.69-4.05,4.45-3.05,7.08-7.21,7.91-12.49h.32v17h14v-62.89c0-9.15-2.81-16.27-8.42-21.38Zm-5.58,52.49c0,5.82-2.07,12.42-6.19,15.81-4.13,3.38-9.68,5.08-16.66,5.08-5.71,0-10.18-1.41-13.41-4.21-3.23-2.8-4.84-8.64-4.84-13.5s1.45-8.39,4.37-11.19c2.9-2.8,6.68-4.21,11.34-4.21h25.39v12.22Zm101-45.22v-13h-37v-27h-13v27h-25v13h26v54.75c0,6.9,2.15,12.4,6.47,16.52,4.32,4.13,10.06,5.73,17.23,5.73h25.29v-13h-27.14c-2.96,0-5.34-.94-7.15-2.82-1.81-1.87-2.72-4.31-2.72-7.3v-53.88h37Zm85,0v-13h-36v-27h-13v27h-25v13h25v54.75c0,6.9,2.16,12.4,6.48,16.52,4.31,4.13,10.06,5.73,17.22,5.73h25.29v-13h-27.13c-2.96,0-5.35-.94-7.16-2.82s-2.72-4.31-2.72-7.3v-53.88h37Zm85,35v-16.01c0-6.77-1.42-12.64-4.25-17.61-2.84-4.97-6.8-8.83-11.89-11.58-5.09-2.75-11.04-4.13-17.86-4.13-10.19,0-18.4,3.1-24.64,9.28-6.25,6.19-9.37,14.74-9.37,25.63v20.15s2.34,21.44,8.61,27.62c6.28,6.19,14.53,8.19,24.76,8.19,9.17,0,16.81-1.05,22.92-5.33,6.12-4.28,9.65-10.08,10.6-17.21h-14.42c-.75,3.24-2.85,5.94-6.31,7.95-3.47,2.01-7.87,3.01-13.2,3.01-6.19,0-11.15-1.83-14.88-5.48-3.73-3.66-5.6-10.63-6.07-16.91v-7.57h56Zm-55-15.44c0-6.87,1.78-12.19,5.36-15.94,3.58-3.76,8.63-5.64,15.14-5.64s11.56,1.88,15.14,5.64c3.58,3.75,5.37,9.07,5.37,15.94v4.44h-41v-4.44Zm90-24.25v-8.31h-14v90h14v-58.62c0-6.86,1.65-12.11,4.95-15.75,3.29-3.64,8.08-5.46,14.37-5.46,12.45,0,18.68,6.42,18.68,19.29v7.55h12v-7.45c0-10.05-2.04-17.79-6.95-23.24-4.91-5.45-10.76-7-19.86-7-6.76,0-10.92,1-15.75,3.74l-7.45,5.26Zm-201,134.66c-3.97,0-7.13-1.16-9.48-3.49-2.35-2.33-3.52-5.58-3.52-9.75v-7.58c0-4.21,1.16-7.47,3.49-9.78,2.33-2.31,5.5-3.46,9.51-3.46s7.18,1.15,9.51,3.46c2.33,2.31,3.49,5.57,3.49,9.78v7.58c0,4.17-1.17,7.42-3.52,9.75-2.35,2.33-5.51,3.49-9.48,3.49Zm.5-4.95c2.34,0,4.18-.65,5.51-1.96,1.33-1.31,1.99-3.23,1.99-5.77v-8.69c0-2.54-.66-4.46-1.99-5.77-1.33-1.31-3.17-1.96-5.51-1.96s-4.13.65-5.48,1.96c-1.35,1.31-2.02,3.24-2.02,5.77v8.69c0,2.54.67,4.46,2.02,5.77,1.35,1.31,3.17,1.96,5.48,1.96Zm27.5,4.98v-24h-10v-5h10v-6.77c0-2.55.85-4.56,2.56-6.03,1.71-1.47,4.06-2.21,7.06-2.21h8.38v5h-10.02c-2.65,0-3.98,1.18-3.98,3.54v6.46h14v5h-13v24h-5Zm24.41.04c-1.48,0-2.67-.44-3.57-1.32-.9-.88-1.35-2.02-1.35-3.42,0-1.48.45-2.68,1.35-3.6.9-.92,2.09-1.38,3.57-1.38s2.67.46,3.57,1.38c.9.92,1.35,2.12,1.35,3.6,0,1.4-.45,2.54-1.35,3.42-.9.88-2.09,1.32-3.57,1.32Zm25.59.69c-3.7,0-6.63-1.13-8.78-3.39-2.15-2.26-3.22-5.37-3.22-9.33v-20c0-3.96,1.07-7.07,3.22-9.33,2.15-2.26,5.07-3.39,8.78-3.39s6.52,1.14,8.67,3.42c2.15,2.28,3.22,5.38,3.22,9.3h-5c0-2.5-.6-4.43-1.81-5.79-1.2-1.35-2.9-2.03-5.08-2.03s-3.9.68-5.14,2.03c-1.24,1.35-1.86,3.28-1.86,5.79v20c0,2.51.62,4.44,1.86,5.79,1.24,1.35,2.95,2.03,5.14,2.03s3.88-.68,5.08-2.03c1.2-1.35,1.81-3.28,1.81-5.79h5c0,3.92-1.08,7.02-3.22,9.3-2.15,2.28-5.04,3.42-8.67,3.42Zm31-.75c-3.97,0-7.13-1.16-9.48-3.49-2.35-2.33-3.52-5.58-3.52-9.75v-7.58c0-4.21,1.16-7.47,3.49-9.78,2.33-2.31,5.5-3.46,9.51-3.46s7.18,1.15,9.51,3.46c2.33,2.31,3.49,5.57,3.49,9.78v7.58c0,4.17-1.17,7.42-3.52,9.75-2.35,2.33-5.51,3.49-9.48,3.49Zm.5-4.95c2.34,0,4.18-.65,5.51-1.96,1.33-1.31,1.99-3.23,1.99-5.77v-8.69c0-2.54-.66-4.46-1.99-5.77-1.33-1.31-3.17-1.96-5.51-1.96s-4.13.65-5.48,1.96c-1.35,1.31-2.02,3.24-2.02,5.77v8.69c0,2.54.67,4.46,2.02,5.77,1.35,1.31,3.17,1.96,5.48,1.96Zm31.44,4.74c-3.3,0-5.95-1.08-7.95-3.24-1.99-2.16-2.99-5.08-2.99-8.76v-9.47c0-3.73.99-6.67,2.96-8.82,1.97-2.16,4.63-3.24,7.98-3.24,2.5,0,4.56.61,6.19,1.82,1.63,1.22,2.61,2.86,2.93,4.94h-.06v-17h5v44h-5v-7h-.06c-.28,2.12-1.23,3.78-2.84,4.97-1.61,1.2-3.67,1.79-6.16,1.79Zm1.09-4.8c2.17,0,3.87-.68,5.11-2.03,1.24-1.36,1.86-3.23,1.86-5.64v-8.71c0-2.4-.62-4.28-1.86-5.64-1.24-1.35-2.94-2.03-5.11-2.03s-3.93.57-5.17,1.71c-1.24,1.14-1.86,3.03-1.86,5.66v9.29c0,2.6.62,4.47,1.86,5.64,1.24,1.16,2.96,1.74,5.17,1.74Zm32.24,5.41c-3.67,0-6.64-1.22-8.89-3.66-2.25-2.44-3.38-5.8-3.38-10.09v-7.91c0-4.12,1.15-7.35,3.44-9.69,2.29-2.34,5.31-3.51,9.06-3.51,2.51,0,4.7.52,6.57,1.56,1.87,1.04,3.33,2.5,4.37,4.38,1.04,1.88,1.56,4.1,1.56,6.66v5.88h-20v3.25c0,2.54.66,4.55,1.99,6.03,1.33,1.48,3.09,2.22,5.28,2.22,1.89,0,3.46-.41,4.69-1.22,1.23-.81,1.98-1.91,2.24-3.28h5.11c-.34,2.88-1.61,5.16-3.81,6.84-2.2,1.69-4.94,2.53-8.24,2.53Zm-7.27-20.38h15v-1.68c0-2.6-.65-4.61-1.96-6.03-1.31-1.42-3.15-2.13-5.54-2.13s-4.23.71-5.54,2.13c-1.31,1.42-1.96,3.43-1.96,6.03v1.68Zm55,26.64c-5.72-1.28-10.15-3.96-13.29-8.04-3.14-4.08-4.71-9.2-4.71-15.36v-10.8c0-6.16,1.57-11.28,4.71-15.36,3.14-4.08,7.57-6.76,13.29-8.04v4.47c-2.64.62-4.94,1.79-6.9,3.53-1.96,1.73-3.47,3.89-4.52,6.47-1.05,2.58-1.58,5.5-1.58,8.76v11.14c0,3.22.53,6.13,1.58,8.73,1.05,2.6,2.56,4.77,4.52,6.5,1.96,1.73,4.26,2.91,6.9,3.53v4.47Zm7,0v-4.47c2.68-.62,4.99-1.8,6.93-3.53,1.94-1.73,3.44-3.9,4.49-6.5,1.05-2.6,1.58-5.51,1.58-8.73v-11.14c0-3.26-.53-6.18-1.58-8.76-1.05-2.58-2.55-4.74-4.49-6.47-1.94-1.73-4.25-2.91-6.93-3.53v-4.47c5.72,1.28,10.15,3.96,13.29,8.04,3.14,4.08,4.71,9.2,4.71,15.36v10.8c0,6.16-1.57,11.28-4.71,15.36-3.14,4.08-7.57,6.76-13.29,8.04Z"/>
  </g>
</svg>